<svg xmlns="http://www.w3.org/2000/svg" xmlns:xlink="http://www.w3.org/1999/xlink" version="1.1" x="0px" y="0px" viewBox="0 0 100 125" enable-background="new 0 0 100 100" xml:space="preserve"><path d="M21.762,61.047c0.182,0.047,0.365,0.069,0.55,0.069c1.329,0,2.684-1.189,3.498-3.142c0.374-0.895,0.857-3.239,0.28-4.601  c-0.2-0.473-0.51-0.794-0.92-0.954c-0.276-0.108-0.723-0.177-1.262,0.124c-1.271,0.708-2.335,3.164-2.491,4.012  c-0.033,0.184-0.1,0.431-0.175,0.712c-0.29,1.095-0.651,2.457-0.191,3.242C21.21,60.783,21.456,60.968,21.762,61.047z   M22.209,57.525c0.083-0.311,0.154-0.585,0.192-0.788c0.134-0.733,1.102-2.822,1.993-3.319c0.123-0.068,0.216-0.09,0.287-0.09  c0.053,0,0.093,0.012,0.125,0.024c0.151,0.059,0.27,0.194,0.362,0.413c0.429,1.011,0.039,3.058-0.281,3.825  c-0.799,1.912-2.043,2.703-2.876,2.488c-0.049-0.013-0.073-0.031-0.099-0.073C21.664,59.579,22.019,58.243,22.209,57.525z M97,73.55  V69h-3v-2.843L77.046,23H22.813L6,66.157V71h3v0.552l-3,0.004v3.46V77h88v-1.984l0,0v-1.462L97,73.55z M86.73,65  c-0.812-3-1.648-5.227-2.529-7.024c-0.692-1.41-1.407-2.813-2.18-5.349c-0.965-3.167-0.727-6.832-0.516-10.091  c0.039-0.613,0.078-1.313,0.108-1.901L91.022,65H86.73z M80.648,38.094c0.038,1.28-0.043,2.805-0.141,4.326  c-0.216,3.344-0.461,7.173,0.557,10.514c0.796,2.613,1.529,4.017,2.238,5.463C84.137,60.099,84.929,62,85.7,65h-4.518  c-0.31-1-1.135-3.239-1.891-5.01c-3.199-7.49-3.173-13.099-3.151-17.652c0.006-1.271,0.012-2.602-0.05-3.755  C75.72,31.585,74.392,27,73.654,25h2.019L80.648,38.094z M64.051,25h2.744c-0.408,1-0.6,1.226-0.747,2.027  c-0.084,0.397-1.557,7.673,0.411,15.15c1.184,4.496,1.819,5.155,2.377,5.155c0.046,0,0.091,0.015,0.136,0.009  c0.466-0.067,1.17-0.318,0.999-5.912C69.966,41.273,69.3,27,67.484,25h1.968c3.129,6,2.604,11.118,2.036,16.214  c-0.155,1.391-0.315,2.907-0.396,4.371c-0.178,3.238,1.43,9.27,2.905,13.986c-1.151-2.074-2.504-4.05-3.842-6.012  c-2.454-3.598-4.772-6.985-5.444-10.412c-0.925-4.718-0.768-8.804-0.629-12.276C64.166,28.765,64.232,27,64.051,25z M67.203,26.593  c0.712,2.107,1.618,10.112,1.768,15.033c0.084,2.747-0.063,3.953-0.181,4.466c-0.245-0.449-0.688-1.524-1.364-4.091  c-1.919-7.291-0.414-14.543-0.398-14.615l0.003-0.014C67.093,27.03,67.151,26.778,67.203,26.593z M76.934,65  c-1.131-3-5.106-14.62-4.844-19.393c0.079-1.436,0.238-2.961,0.392-4.338C73.028,36.365,73.59,32,70.577,25h2.003  c0.659,2,2.126,6.375,2.512,13.663c0.06,1.124,0.054,2.389,0.048,3.647c-0.021,4.645-0.049,10.353,3.231,18.032  C79.464,62.902,79.944,64,80.156,65H76.934z M63.04,25c0.188,2,0.128,3.725,0.043,5.836c-0.141,3.526-0.301,7.601,0.647,12.434  c0.711,3.628,3.085,7.036,5.599,10.721C71.726,57.504,74.187,61,75.336,65h-6.301c-1.293-6-4.198-10.874-5.672-13.074L59.917,25  H63.04z M63,75H37v-1.446l3-0.004V69h-3v-2h26v4h3v0.552l-3,0.004V75z M19.691,60.929l-0.048-0.414  c-0.147-1.415-0.453-4.334-0.054-5.311l0.28-0.677c0.979-2.422,1.274-3.147,3.265-4.796c1.607-1.325,2.874-4.687,3.893-7.391  c0.363-0.964,0.691-1.833,0.981-2.474c0.014,1.167-0.135,3.118-0.218,4.209c-0.058,0.745-0.105,1.383-0.117,1.758  c-0.02,0.637,0.181,1.309,0.413,2.086c0.454,1.52,1.02,3.41,0.296,6.115l-0.086,0.316c-1.044,3.871-1.945,7.107-3.541,7.91  C23.713,62.791,22.332,64,21.533,65h-2.038C19.844,64,19.84,62.431,19.691,60.929z M25.206,63.153  c1.993-1.004,2.903-4.323,4.056-8.595l0.086-0.292c0.797-2.979,0.161-5.093-0.303-6.647c-0.208-0.694-0.388-1.287-0.372-1.762  c0.011-0.366,0.059-0.983,0.114-1.71c0.362-4.76,0.299-5.765-0.376-5.98c-0.342-0.104-0.654,0.071-0.931,0.534  c-0.41,0.685-0.864,1.891-1.39,3.288c-0.977,2.593-2.191,5.82-3.595,6.977c-2.186,1.812-2.558,2.734-3.555,5.199l-0.278,0.687  c-0.456,1.116-0.247,3.589-0.015,5.819l0.047,0.357C18.844,62.524,18.845,64,18.468,65h-2.444c0.298-1,0.567-3.727-0.082-5.799  c-0.876-2.794,0.537-7.408,2.964-9.74c2.171-2.085,4.504-7.328,6.207-11.175c0.328-0.741,0.629-1.559,0.895-2.138  C27.682,32.5,28.573,30,29.421,25h3.951c-0.351,2-1.381,8.558-1.887,10.09c-0.631,1.909-1.865,10.961,0.02,14.405  c1.68,3.07-0.157,10.338-2.67,12.994L26.396,65h-3.689C23.242,64,24.047,63.742,25.206,63.153z M29.561,63.216  c2.775-2.935,4.703-10.736,2.82-14.178c-1.611-2.945-0.626-11.605,0.053-13.66C32.983,33.716,34.058,27,34.385,25h4.073  c-0.216,2-0.875,7.077-1.981,9.728c-2.282,5.471-1.493,9.934-0.729,14.175c0.245,1.364,0.48,2.625,0.615,3.963L34.798,65h-7.025  L29.561,63.216z M36.841,65l2.834-21.994c1.194,1.756,2.789,5.069,2.047,9.287c-0.228,1.293-0.771,2.51-1.345,3.883  C39.373,58.576,38.26,61,38.171,65H36.841z M47.967,50.719c-0.415-3.465-1.419-5.012-2.481-6.707  c-0.762-1.214-1.549-2.596-2.238-4.685C41.985,35.496,43.291,28,43.789,25h1.43c-0.503,3-1.669,10.092,1.533,13.07  c0.124,0.115,0.287,0.334,0.481,0.504c2.255,1.975,9.117,7.913,5.48,16.771C51.217,58.989,50.727,63,50.566,65h-4.704  C46.793,62,48.493,55.099,47.967,50.719z M49.845,32.844c0.036,0.005,0.071,0.083,0.105,0.083c0.378,0,0.668-0.404,0.769-0.505  C51.788,31.352,53.546,27,53.817,25h1.462c-0.16,1-0.34,3.576,0.071,6.709c0.175,1.33,0.653,2.823,1.206,4.465  c1.422,4.213,3.19,9.388,0.89,16.583C55.266,59.575,55.151,63,55.302,65h-3.729c0.167-2,0.654-5.8,2.066-9.239  c3.907-9.518-3.359-15.826-5.748-17.917c-0.185-0.162-0.34-0.425-0.458-0.534C44.555,34.633,45.805,27,46.242,25h1.642  C48.531,33,49.481,32.792,49.845,32.844z M48.886,25h3.933c-0.277,2-2.018,5.886-2.805,6.613C49.606,30.85,49.146,28,48.886,25z   M62.865,65h-6.554c-0.145-1-0.104-5.048,2.087-11.9c2.399-7.509,0.496-13.101-0.895-17.224c-0.537-1.591-1-3.091-1.162-4.325  C55.928,28.404,56.141,26,56.293,25h1.456L62.865,65z M65.033,65l-1.364-10.638C65.134,56.845,67.026,61,68.01,65H65.033z   M42.769,25c-0.542,3-1.793,10.657-0.471,14.666c0.727,2.206,1.584,3.65,2.34,4.855c1.046,1.667,1.948,3.036,2.337,6.28  c0.513,4.278-1.272,11.2-2.158,14.2h-5.646c0.091-3,1.162-6.102,2.128-8.411c0.597-1.426,1.159-2.72,1.406-4.122  c0.958-5.441-1.594-9.452-2.845-10.979L41.958,25H42.769z M36.83,49.204c-0.033-0.185-0.066-0.294-0.099-0.479  c-0.738-4.1-1.501-8.452,0.669-13.652C38.594,32.211,39.263,27,39.466,25h0.448L36.83,49.204z M24.186,25h4.222  c-0.819,5-1.656,7.142-3.309,10.742c-0.268,0.583-0.57,1.343-0.9,2.088c-1.575,3.559-3.957,8.976-5.986,10.925  c-2.708,2.602-4.215,7.566-3.226,10.725C15.597,61.426,15.286,64,14.998,65H8.836L24.186,25z M11,73.55V69H8v-2h26.541H35v4h3v0.552  l-3,0.004V75H8v-1.446L11,73.55z M65,75v-1.446l3-0.004V69h-3v-2h27v4h3v0.552l-3,0.004V75H65z"/><text x="0" y="115" fill="#000000" font-size="5px" font-weight="bold" font-family="'Helvetica Neue', Helvetica, Arial-Unicode, Arial, Sans-serif">Created by  Laymik</text><text x="0" y="120" fill="#000000" font-size="5px" font-weight="bold" font-family="'Helvetica Neue', Helvetica, Arial-Unicode, Arial, Sans-serif">from the Noun Project</text></svg>