<svg xmlns="http://www.w3.org/2000/svg" xmlns:xlink="http://www.w3.org/1999/xlink" version="1.1" x="0px" y="0px" viewBox="0 0 360 360" style="enable-background:new 0 0 360 360;" xml:space="preserve"><style type="text/css">
	.st0{fill:none;stroke:#000000;stroke-width:10.6265;stroke-linecap:round;stroke-linejoin:round;stroke-miterlimit:10;}
	.st1{fill:none;stroke:#000000;stroke-width:7.8605;stroke-linecap:round;stroke-linejoin:round;stroke-miterlimit:10;}
</style><polygon class="st0" points="295,72 289.7,115.5 204.5,127.2 122.1,94.9 130,51.8 215.2,40.2 "></polygon><polyline class="st0" points="122.1,94.9 120,127.5 202.9,162.7 204.5,127.2 "></polyline><polyline class="st0" points="202.9,162.7 287,149 289.7,115.5 "></polyline><path class="st0" d="M162.3,145.4l-21.5,163.4c-1.6,12.5,6.2,24.3,18.3,27.6c5.5,1.5,11.5,2.9,17.5,3.7  c14.1,1.9,26.9-8.2,28.7-22.3L225.5,159"></path><path class="st1" d="M142.9,287.1c0,0,40.3,13.3,61.6,10.7"></path><path class="st1" d="M146.9,262c0,0,45,14.6,63.9,12.1"></path><path class="st1" d="M149.1,238.9c0,0,40.3,13.3,61.6,10.7"></path><path class="st1" d="M153,213.8c0,0,45,14.6,63.9,12.1"></path><path class="st1" d="M154.9,192.3c0,0,40.3,13.3,61.6,10.7"></path><path class="st1" d="M158.9,167.2c0,0,45,14.6,63.9,12.1"></path><path class="st1" d="M140.3,310.6c0,0,40.3,13.3,61.6,10.7"></path></svg>