<svg xmlns="http://www.w3.org/2000/svg" data-name="Layer 1" viewBox="0 0 100 125" x="0px" y="0px"><title>Artboard 6</title><path d="M42.94,25.85,70.86,53.77a7.21,7.21,0,0,0,10.18,0l9-9,2.28-2.28a7.2,7.2,0,0,0,0-10.18L64.38,4.41a7.21,7.21,0,0,0-10.18,0L42.94,15.67A7.21,7.21,0,0,0,42.94,25.85Zm2.83-7.35L57,7.24a3.2,3.2,0,0,1,4.52,0L89.47,35.16a3.2,3.2,0,0,1,0,4.52L78.21,50.94a3.2,3.2,0,0,1-4.52,0L45.77,23A3.2,3.2,0,0,1,45.77,18.5ZM11.84,95.81a6.47,6.47,0,0,0,9.14,0L38.22,78.56a6.47,6.47,0,0,0,0-9.14l-2.05-2.05,6.73-6.73a7.08,7.08,0,0,0,1.59-7.57l-14-36.14A8,8,0,0,1,42,7.42a2,2,0,1,0,2-3.48A12,12,0,0,0,26.69,18.29L40.77,54.52a3.08,3.08,0,0,1-.69,3.29l-6.73,6.73-2.05-2.05a6.47,6.47,0,0,0-9.14,0L4.91,79.73a6.47,6.47,0,0,0,0,9.14ZM7.73,82.56,25,65.32a2.47,2.47,0,0,1,3.48,0l6.93,6.93a2.47,2.47,0,0,1,0,3.48L18.15,93a2.47,2.47,0,0,1-3.48,0L7.73,86A2.47,2.47,0,0,1,7.73,82.56ZM93.57,48.69a2,2,0,0,1,2.83,2.83L90,57.87A2,2,0,0,1,87.22,55Z"/><text x="0" y="115" fill="#000000" font-size="5px" font-weight="bold" font-family="'Helvetica Neue', Helvetica, Arial-Unicode, Arial, Sans-serif">Created by Gregor Cresnar</text><text x="0" y="120" fill="#000000" font-size="5px" font-weight="bold" font-family="'Helvetica Neue', Helvetica, Arial-Unicode, Arial, Sans-serif">from the Noun Project</text></svg>